<svg width="32" height="32" fill="none" xmlns="http://www.w3.org/2000/svg"><path d="M21.123 28a1.203 1.203 0 0 1-1.203-1.201v-3.123a2.58 2.58 0 0 0-.649-1.993 1.201 1.201 0 0 1 .734-2.006c2.933-.349 5.638-1.285 5.638-6.366a4.8 4.8 0 0 0-.805-2.666 3.3 3.3 0 0 1-.493-2.474 4.454 4.454 0 0 0 0-1.693c-.9.304-1.748.745-2.513 1.309a1.202 1.202 0 0 1-1.01.18 12.216 12.216 0 0 0-6.636 0 1.203 1.203 0 0 1-1.01-.18 8.901 8.901 0 0 0-2.537-1.31 4.225 4.225 0 0 0 0 1.694 3.408 3.408 0 0 1-.517 2.498 4.885 4.885 0 0 0-.806 2.678c0 4.672 2.26 5.921 5.651 6.354a1.203 1.203 0 0 1 .986.793 1.2 1.2 0 0 1-.253 1.2 2.474 2.474 0 0 0-.66 1.874V26.8A1.2 1.2 0 0 1 13.836 28a1.203 1.203 0 0 1-1.202-1.201v-.685a7.22 7.22 0 0 1-6.337-2.51 4.689 4.689 0 0 0-1.394-1.057 1.204 1.204 0 1 1 .6-2.33 5.928 5.928 0 0 1 2.406 1.634c1.202 1.2 2.404 2.258 4.688 1.825a4.667 4.667 0 0 1 .277-1.897c-2.477-.625-6.011-2.402-6.011-8.408a7.2 7.2 0 0 1 1.202-3.999 1.02 1.02 0 0 0 .156-.745 6.827 6.827 0 0 1 .397-3.855 1.201 1.201 0 0 1 .757-.685c.41-.12 1.876-.36 4.653 1.442 2.248-.54 4.593-.54 6.841 0 2.778-1.802 4.244-1.574 4.641-1.442a1.203 1.203 0 0 1 .758.685 6.852 6.852 0 0 1 .396 3.867.9.9 0 0 0 .133.685A7.2 7.2 0 0 1 28 13.335c0 6.09-3.51 7.855-6.012 8.408.22.644.31 1.326.265 2.005V26.8A1.2 1.2 0 0 1 21.123 28Z" fill="#fff"/></svg>