<svg width="46" height="47" fill="none" xmlns="http://www.w3.org/2000/svg"><path d="m23.191 36.22-.191.193-.211-.192C13.685 27.96 7.666 22.498 7.666 16.958c0-3.833 2.875-6.708 6.709-6.708 2.951 0 5.826 1.917 6.842 4.523h3.565c1.016-2.606 3.891-4.523 6.843-4.523 3.833 0 6.708 2.875 6.708 6.708 0 5.54-6.018 11.002-15.142 19.263Zm8.434-29.803c-3.335 0-6.536 1.552-8.625 3.986-2.09-2.434-5.29-3.986-8.625-3.986-5.904 0-10.542 4.619-10.542 10.541 0 7.226 6.517 13.149 16.387 22.1l2.78 2.53 2.779-2.53c9.87-8.951 16.387-14.874 16.387-22.1 0-5.922-4.638-10.541-10.541-10.541Z" fill="#FE0072"/></svg>