<svg width="32" height="32" fill="none" xmlns="http://www.w3.org/2000/svg"><path fill-rule="evenodd" clip-rule="evenodd" d="M11.425 24V13.306h-3.43V24h3.43ZM9.838 11.687c1.144 0 1.856-.818 1.856-1.843C11.675 8.8 10.982 8 9.857 8S8 8.8 8 9.844c0 1.025.713 1.844 1.813 1.844h.025ZM20.038 13.063c-1.82 0-2.6 1.024-3.1 1.737v-1.488H13.5V24h3.438v-6.087c0-.313.024-.625.118-.844.25-.625.813-1.269 1.763-1.269 1.244 0 1.744.956 1.744 2.356V24H24v-6.244c0-3.206-1.7-4.694-3.962-4.694Z" fill="#fff"/><path d="M26.075 4H6.05C4.956 4 4 4.787 4 5.869v20.069c0 1.087.956 2.056 2.05 2.056h20.019c1.1 0 1.925-.975 1.925-2.056V5.867C28 4.789 27.169 4 26.075 4Zm-.2 22H6.194A.19.19 0 0 1 6 25.806V6.125A.13.13 0 0 1 6.125 6h19.75c.063 0 .125.063.125.125v19.75c0 .056-.056.125-.125.125Z" fill="#fff"/></svg>