<svg width="46" height="46" viewBox="0 0 46 46" fill="none" xmlns="http://www.w3.org/2000/svg">
<path d="M40.2497 5.75V29.7083C40.2497 31.4875 39.5429 33.1938 38.2848 34.4518C37.0268 35.7099 35.3205 36.4167 33.5413 36.4167C31.7622 36.4167 30.0559 35.7099 28.7978 34.4518C27.5398 33.1938 26.833 31.4875 26.833 29.7083C26.833 27.9292 27.5398 26.2229 28.7978 24.9648C30.0559 23.7068 31.7622 23 33.5413 23C34.5763 23 35.5538 23.23 36.4163 23.6517V12.4008L17.2497 16.4833V33.5417C17.2497 35.3208 16.5429 37.0271 15.2848 38.2852C14.0268 39.5432 12.3205 40.25 10.5413 40.25C8.76218 40.25 7.05589 39.5432 5.79783 38.2852C4.53978 37.0271 3.83301 35.3208 3.83301 33.5417C3.83301 31.7625 4.53978 30.0562 5.79783 28.7982C7.05589 27.5401 8.76218 26.8333 10.5413 26.8333C11.5763 26.8333 12.5538 27.0633 13.4163 27.485V11.5L40.2497 5.75Z" fill="#FE0072"/>
</svg>
