<svg width="46" height="46" fill="none" xmlns="http://www.w3.org/2000/svg"><g clip-path="url(#a)" fill="#FE0072"><path d="M12.267 29.236V13.544h18.911l2.02-2.044H10.222v17.736h2.044Z"/><path d="M7.667 8.944h30.667V29.39h2.555V8.306a1.916 1.916 0 0 0-1.917-1.917H7.028a1.917 1.917 0 0 0-1.917 1.917v21.083h2.556V8.944ZM1.277 31.945v4.344A3.322 3.322 0 0 0 4.6 39.61h36.723a3.323 3.323 0 0 0 3.322-3.322v-4.345H1.277Zm40.89 4.344a.767.767 0 0 1-.767.767H4.548a.767.767 0 0 1-.766-.767v-2.39h12.714a2.095 2.095 0 0 0 1.916 1.278h9.11A2.096 2.096 0 0 0 29.44 33.9h12.726v2.389Z"/></g><defs><clipPath id="a"><path fill="#fff" d="M0 0h46v46H0z"/></clipPath></defs></svg>