<svg width="46" height="46" fill="none" xmlns="http://www.w3.org/2000/svg"><path d="M14.266 10.254c1.225 0 2.358.096 3.393.38 1.037.19 1.886.569 2.639 1.042.755.474 1.32 1.138 1.696 1.992.378.853.567 1.897.567 3.034 0 1.328-.283 2.465-.943 3.318-.565.854-1.508 1.611-2.639 2.18 1.602.476 2.827 1.329 3.582 2.466.756 1.136 1.225 2.56 1.225 4.172 0 1.328-.284 2.465-.755 3.414a6.276 6.276 0 0 1-2.074 2.37 9.775 9.775 0 0 1-3.015 1.327c-1.13.286-2.261.475-3.392.475H1.917v-26.17h12.35Zm-.755 10.618c1.037 0 1.886-.283 2.545-.757.66-.473.943-1.328.943-2.37 0-.57-.096-1.139-.283-1.517-.188-.377-.472-.665-.848-.948a4.599 4.599 0 0 0-1.226-.474c-.472-.096-.941-.096-1.509-.096H7.667v6.164l5.844-.002Zm.284 11.19c.565 0 1.13-.096 1.602-.19.471-.096.943-.283 1.319-.569.382-.28.703-.634.943-1.043.187-.473.377-1.042.377-1.706 0-1.328-.377-2.276-1.13-2.94-.756-.569-1.793-.853-3.017-.853H7.667v7.303l6.128-.002Zm18.193-.096c.754.76 1.884 1.139 3.392 1.139 1.037 0 1.98-.284 2.733-.757.755-.57 1.227-1.14 1.415-1.708h4.619c-.755 2.275-1.886 3.887-3.393 4.93-1.51.948-3.3 1.517-5.468 1.517a11.119 11.119 0 0 1-4.054-.759 7.474 7.474 0 0 1-3.016-2.085 7.474 7.474 0 0 1-1.885-3.13c-.471-1.232-.66-2.558-.66-4.076 0-1.423.189-2.749.66-3.983a10.16 10.16 0 0 1 1.98-3.224c.848-.853 1.884-1.61 3.015-2.085a10.543 10.543 0 0 1 3.96-.76c1.602 0 3.017.286 4.242.95 1.226.662 2.168 1.421 2.92 2.56.756 1.043 1.323 2.275 1.699 3.603.188 1.327.282 2.655.188 4.17H30.667c0 1.519.565 2.941 1.32 3.7m5.938-9.955c-.659-.663-1.696-1.043-2.922-1.043-.72-.01-1.431.152-2.074.474-.566.285-.941.665-1.319 1.044-.35.365-.58.828-.66 1.327-.095.475-.19.852-.19 1.232h8.484c-.188-1.422-.66-2.369-1.319-3.034Zm-8.295-9.957h10.557v2.56H29.632l-.002-2.56Z" fill="#fff"/></svg>